<svg width="29" height="28" viewBox="0 0 29 28" fill="none" xmlns="http://www.w3.org/2000/svg">
<rect x="1.07129" y="0.5" width="27" height="27" rx="13.5" fill="#FFE2C5"/>
<rect x="1.07129" y="0.5" width="27" height="27" rx="13.5" stroke="#FFCB10"/>
<path d="M14.2618 22.9205L14.2557 22.9178L14.2365 22.9071C14.1243 22.8442 14.013 22.7796 13.9026 22.7134C12.5756 21.9093 11.3354 20.9648 10.2027 19.8955C8.19672 17.987 6.07129 15.1549 6.07129 11.6668C6.07129 9.06412 8.21939 7.00006 10.8121 7.00006C11.5329 6.99646 12.2451 7.15859 12.896 7.47439C13.5468 7.79019 14.1194 8.25153 14.5713 8.82411C15.0232 8.25142 15.596 7.79 16.247 7.4742C16.898 7.15839 17.6104 6.99633 18.3313 7.00006C20.9232 7.00006 23.0713 9.06412 23.0713 11.6668C23.0713 15.1558 20.9459 17.9879 18.9399 19.8946C17.8072 20.964 16.567 21.9085 15.24 22.7125C15.1296 22.779 15.0183 22.8439 14.9061 22.9071L14.8869 22.9178L14.8808 22.9214L14.8782 22.9222C14.7836 22.9733 14.6783 23 14.5713 23C14.4643 23 14.359 22.9733 14.2644 22.9222L14.2618 22.9205Z" fill="#FFD7CC" stroke="#FF390C" stroke-width="0.5"/>
<mask id="mask0_1157_3437" style="mask-type:alpha" maskUnits="userSpaceOnUse" x="6" y="6" width="18" height="18">
<path d="M14.2593 22.9871L14.2532 22.9844L14.2338 22.9736C14.1207 22.9102 14.0084 22.845 13.8971 22.7782C12.5589 21.9674 11.3084 21.015 10.1661 19.9367C8.14329 18.0122 6 15.1563 6 11.6389C6 9.01432 8.16615 6.93292 10.7806 6.93292C11.5075 6.9293 12.2257 7.09279 12.882 7.41124C13.5383 7.72969 14.1158 8.19491 14.5714 8.7723C15.0271 8.19479 15.6047 7.7295 16.2612 7.41104C16.9177 7.09259 17.6361 6.92916 18.3631 6.93292C20.9767 6.93292 23.1428 9.01432 23.1428 11.6389C23.1428 15.1572 20.9995 18.0131 18.9767 19.9358C17.8345 21.0141 16.5839 21.9666 15.2457 22.7773C15.1344 22.8444 15.0222 22.9099 14.909 22.9736L14.8897 22.9844L14.8835 22.988L14.8809 22.9889C14.7855 23.0404 14.6793 23.0673 14.5714 23.0673C14.4635 23.0673 14.3573 23.0404 14.262 22.9889L14.2593 22.9871Z" fill="white"/>
</mask>
<g mask="url(#mask0_1157_3437)">
<path d="M1.14282 19.0001C1.14282 19.0001 11.7144 18.0002 14.1428 19.0001C16.5713 20 27.1428 19.0001 27.1428 19.0001V26H1.14282V19.0001Z" fill="url(#paint0_linear_1157_3437)"/>
</g>
<path d="M10.8115 6.75006C11.5704 6.74637 12.3202 6.91714 13.0051 7.24947C13.599 7.53766 14.1308 7.94084 14.5713 8.43526L18.3313 6.75006C18.3316 6.75006 18.3318 6.75006 18.332 6.75006C21.0561 6.75041 23.3213 8.92085 23.3213 11.6668C23.3213 15.2589 21.1354 18.1527 19.1121 20.0758L19.1115 20.0764C17.966 21.1578 16.7117 22.1131 15.3695 22.9263L15.369 22.9266C15.2566 22.9944 15.1431 23.0605 15.0288 23.1249L15.0276 23.1256L15.0105 23.1351M10.8115 6.75006C10.8117 6.75006 10.8119 6.75006 10.8121 6.75006V7.00006L10.8109 6.75007C10.8111 6.75007 10.8113 6.75006 10.8115 6.75006ZM10.8115 6.75006C8.08648 6.75039 5.82129 8.92081 5.82129 11.6668C5.82129 15.258 8.00724 18.1518 10.0304 20.0766L10.0311 20.0773C11.1766 21.1587 12.4309 22.1139 13.7731 22.9272L13.774 22.9277C13.8865 22.9952 13.9999 23.061 14.1142 23.1252L14.115 23.1256L14.1342 23.1363L14.1446 23.1421L14.1487 23.1439M14.1487 23.1439C14.2788 23.2135 14.4238 23.25 14.5713 23.25C14.7124 23.25 14.8513 23.2166 14.9769 23.1527M14.1487 23.1439C14.1477 23.1433 14.1466 23.1428 14.1456 23.1422L14.1344 23.1361L14.1343 23.1361L14.1238 23.1289L14.1212 23.1272L14.2203 22.9815L14.2415 22.9503L14.2618 22.9205L14.2549 22.9362L14.2467 22.9551L14.1617 23.1496L14.1556 23.1469L14.1487 23.1439ZM14.9769 23.1527L14.985 23.15L15.0066 23.1374L15.0105 23.1351M14.9769 23.1527C14.9836 23.1493 14.9903 23.1458 14.997 23.1422L14.8861 22.9369L14.8782 22.9222L14.9587 23.1589L14.9613 23.158L14.9769 23.1527ZM15.0105 23.1351L15.0127 23.1338L14.8869 22.9178L15.0084 23.1363L15.0105 23.1351Z" stroke="#FF390C" stroke-width="0.5"/>
<defs>
<linearGradient id="paint0_linear_1157_3437" x1="14.1428" y1="9.11108" x2="14.1428" y2="23" gradientUnits="userSpaceOnUse">
<stop stop-color="#E2391C"/>
<stop offset="1" stop-color="#E2381C"/>
</linearGradient>
</defs>
</svg>
