<svg width="28" height="28" viewBox="0 0 28 28" fill="none" xmlns="http://www.w3.org/2000/svg">
<rect x="0.5" y="0.5" width="27" height="27" rx="13.5" fill="#FFE2C5"/>
<rect x="0.5" y="0.5" width="27" height="27" rx="13.5" stroke="#FFCB10"/>
<path d="M13.6905 22.9205L13.6844 22.9178L13.6652 22.9071C13.553 22.8442 13.4417 22.7796 13.3313 22.7134C12.0043 21.9093 10.7641 20.9648 9.63144 19.8955C7.62544 17.987 5.5 15.1549 5.5 11.6668C5.5 9.06412 7.6481 7.00006 10.2408 7.00006C10.9616 6.99646 11.6739 7.15859 12.3247 7.47439C12.9755 7.79019 13.5482 8.25153 14 8.82411C14.4519 8.25142 15.0247 7.79 15.6757 7.4742C16.3267 7.15839 17.0391 6.99633 17.7601 7.00006C20.3519 7.00006 22.5 9.06412 22.5 11.6668C22.5 15.1558 20.3746 17.9879 18.3686 19.8946C17.2359 20.964 15.9957 21.9085 14.6687 22.7125C14.5583 22.779 14.447 22.8439 14.3348 22.9071L14.3156 22.9178L14.3095 22.9214L14.3069 22.9222C14.2123 22.9733 14.107 23 14 23C13.893 23 13.7877 22.9733 13.6931 22.9222L13.6905 22.9205Z" fill="#FFCCE6" stroke="#FF390C" stroke-width="0.5"/>
<mask id="mask0_1157_3441" style="mask-type:alpha" maskUnits="userSpaceOnUse" x="5" y="6" width="18" height="18">
<path d="M13.688 22.9871L13.6819 22.9844L13.6625 22.9736C13.5494 22.9102 13.4371 22.845 13.3258 22.7782C11.9877 21.9674 10.7371 21.015 9.59486 19.9367C7.572 18.0122 5.42871 15.1563 5.42871 11.6389C5.42871 9.01432 7.59486 6.93292 10.2094 6.93292C10.9362 6.9293 11.6544 7.09279 12.3107 7.41124C12.967 7.72969 13.5445 8.19491 14.0001 8.7723C14.4559 8.19479 15.0334 7.7295 15.6899 7.41104C16.3464 7.09259 17.0648 6.92916 17.7918 6.93292C20.4054 6.93292 22.5715 9.01432 22.5715 11.6389C22.5715 15.1572 20.4282 18.0131 18.4054 19.9358C17.2632 21.0141 16.0126 21.9666 14.6744 22.7773C14.5631 22.8444 14.4509 22.9099 14.3377 22.9736L14.3184 22.9844L14.3122 22.988L14.3096 22.9889C14.2142 23.0404 14.108 23.0673 14.0001 23.0673C13.8922 23.0673 13.786 23.0404 13.6907 22.9889L13.688 22.9871Z" fill="white"/>
</mask>
<g mask="url(#mask0_1157_3441)">
<path d="M0.571533 7H13.5715H26.5715V23H0.571533V7Z" fill="url(#paint0_linear_1157_3441)"/>
</g>
<path d="M10.2402 6.75006C10.9991 6.74637 11.7489 6.91714 12.4338 7.24947C13.0278 7.53766 13.5595 7.94084 14 8.43526L17.7601 6.75006C17.7603 6.75006 17.7605 6.75006 17.7607 6.75006C20.4849 6.75041 22.75 8.92085 22.75 11.6668C22.75 15.2589 20.5641 18.1527 18.5408 20.0758L18.5402 20.0764C17.3947 21.1578 16.1404 22.1131 14.7982 22.9263L14.7977 22.9266C14.6853 22.9944 14.5719 23.0605 14.4575 23.1249L14.4563 23.1256L14.4393 23.1351M10.2402 6.75006C10.2404 6.75006 10.2406 6.75006 10.2408 6.75006V7.00006L10.2396 6.75007C10.2398 6.75007 10.24 6.75006 10.2402 6.75006ZM10.2402 6.75006C7.51519 6.75039 5.25 8.92081 5.25 11.6668C5.25 15.258 7.43595 18.1518 9.45911 20.0766L9.45982 20.0773C10.6053 21.1587 11.8596 22.1139 13.2018 22.9272L13.2027 22.9277C13.3152 22.9952 13.4286 23.061 13.5429 23.1252L13.5437 23.1256L13.5629 23.1363L13.5734 23.1421L13.5774 23.1439M13.5774 23.1439C13.7075 23.2135 13.8525 23.25 14 23.25C14.1411 23.25 14.28 23.2166 14.4056 23.1527M13.5774 23.1439C13.5764 23.1433 13.5753 23.1428 13.5743 23.1422L13.5631 23.1361L13.563 23.1361L13.5525 23.1289L13.5499 23.1272L13.649 22.9815L13.6702 22.9503L13.6905 22.9205L13.6837 22.9362L13.6754 22.9551L13.5904 23.1496L13.5843 23.1469L13.5774 23.1439ZM14.4056 23.1527L14.4137 23.15L14.4353 23.1374L14.4393 23.1351M14.4056 23.1527C14.4124 23.1493 14.419 23.1458 14.4257 23.1422L14.3148 22.9369L14.3069 22.9222L14.3874 23.1589L14.39 23.158L14.4056 23.1527ZM14.4393 23.1351L14.4414 23.1338L14.3156 22.9178L14.4371 23.1363L14.4393 23.1351Z" stroke="#FF390C" stroke-width="0.5"/>
<defs>
<linearGradient id="paint0_linear_1157_3441" x1="13.5715" y1="9.11108" x2="13.5715" y2="23" gradientUnits="userSpaceOnUse">
<stop stop-color="#FC5938"/>
<stop offset="1" stop-color="#D5280D"/>
</linearGradient>
</defs>
</svg>
