<svg width="60" height="60" viewBox="0 0 60 60" fill="none" xmlns="http://www.w3.org/2000/svg">
<g id="Layer_1" clip-path="url(#clip0_6009_4130)">
<g id="Group">
<path id="Vector" d="M21.1055 51.4268H7.64844V23.3223L13.3799 20.2158L21.1055 23.3223V51.4268Z" fill="url(#paint0_linear_6009_4130)"/>
<path id="Vector_2" d="M39.207 51.4268H52.665V23.3223L46.9336 20.2158L39.208 23.3223V51.4268H39.207Z" fill="url(#paint1_linear_6009_4130)"/>
<path id="Vector_3" d="M15.582 22.7068L13.3799 20.2146L7.64844 23.321V26.3093H13.958C15.1553 26.3093 16.126 25.3386 16.126 24.1414C16.126 23.613 15.9326 23.1023 15.582 22.7058V22.7068Z" fill="#CFCDD4"/>
<path id="Vector_4" d="M45.1494 22.7068L42.9473 20.2146L39.207 23.321V26.3093H43.5254C44.7227 26.3093 45.6934 25.3386 45.6934 24.1414C45.6934 23.613 45.5 23.1023 45.1494 22.7058V22.7068Z" fill="#CFCDD4"/>
<path id="Vector_5" d="M7.64844 17.1084C6.54688 17.1084 5.6543 18.001 5.6543 19.1025V21.3281C5.6543 22.4297 6.54688 23.3223 7.64844 23.3223H21.1055V17.1094H7.64844V17.1084Z" fill="url(#paint2_linear_6009_4130)"/>
<path id="Vector_6" d="M52.665 17.1084C53.7666 17.1084 54.6592 18.001 54.6592 19.1025V21.3281C54.6592 22.4297 53.7666 23.3223 52.665 23.3223H39.207V17.1094H52.665V17.1084Z" fill="url(#paint3_linear_6009_4130)"/>
<path id="Vector_7" d="M36.3477 5.53955H23.9648C21.4512 5.53955 19.4141 7.57666 19.4141 10.0903V51.4263H40.8975V10.0903C40.8975 7.57666 38.8604 5.53955 36.3467 5.53955H36.3477Z" fill="url(#paint4_linear_6009_4130)"/>
<path id="Vector_8" d="M31.8389 35.3403H28.4736C26.6826 35.3403 25.2305 36.7925 25.2305 38.5835V48.9917H35.0811V38.5835C35.0811 36.7925 33.6289 35.3403 31.8379 35.3403H31.8389Z" fill="url(#paint5_linear_6009_4130)"/>
<path id="Vector_9" d="M51.5537 47.6282H8.75879C6.76953 47.6282 5.15625 49.2415 5.15625 51.2307V52.7405C5.15625 54.1125 6.26855 55.2249 7.64062 55.2249H52.6719C54.0439 55.2249 55.1562 54.1125 55.1562 52.7405V51.2307C55.1562 49.2415 53.543 47.6282 51.5537 47.6282Z" fill="url(#paint6_linear_6009_4130)"/>
<path id="Vector_10" d="M37.9102 11.0862C37.3603 11.0862 36.9141 10.6399 36.9141 10.0901C36.9141 9.77759 36.6602 9.52368 36.3477 9.52368C35.7978 9.52368 35.3516 9.07739 35.3516 8.52759C35.3516 7.97778 35.7978 7.53149 36.3477 7.53149C37.7588 7.53149 38.9062 8.67895 38.9062 10.0901C38.9062 10.6399 38.46 11.0862 37.9102 11.0862Z" fill="#D7F4FF"/>
<path id="Vector_11" d="M35.8115 18.3943H32.5791V15.1619C32.5791 14.2751 31.8604 13.5574 30.9736 13.5574H29.3398C28.4531 13.5574 27.7354 14.2761 27.7354 15.1619V18.3943H24.5029C23.6162 18.3943 22.8984 19.113 22.8984 19.9988V21.6326C22.8984 22.5193 23.6172 23.2371 24.5029 23.2371H27.7354V26.4695C27.7354 27.3562 28.4541 28.074 29.3398 28.074H30.9736C31.8604 28.074 32.5791 27.3552 32.5791 26.4695V23.2371H35.8115C36.6982 23.2371 37.417 22.5183 37.417 21.6326V19.9988C37.417 19.1121 36.6982 18.3943 35.8115 18.3943Z" fill="white"/>
<path id="Vector_12" d="M14.5537 27.5332H12.5098C11.8203 27.5332 11.2617 28.0918 11.2617 28.7812V32.876C11.2617 33.5654 11.8203 34.124 12.5098 34.124H14.5537C15.2432 34.124 15.8018 33.5654 15.8018 32.876V28.7812C15.8018 28.0918 15.2432 27.5332 14.5537 27.5332Z" fill="url(#paint7_linear_6009_4130)"/>
<path id="Vector_13" d="M14.5537 38.3289H12.5098C11.8203 38.3289 11.2617 38.8875 11.2617 39.5769V43.6716C11.2617 44.3611 11.8203 44.9197 12.5098 44.9197H14.5537C15.2432 44.9197 15.8018 44.3611 15.8018 43.6716V39.5769C15.8018 38.8875 15.2432 38.3289 14.5537 38.3289Z" fill="url(#paint8_linear_6009_4130)"/>
<path id="Vector_14" d="M45.7578 27.5332H47.8018C48.4912 27.5332 49.0498 28.0918 49.0498 28.7812V32.876C49.0498 33.5654 48.4912 34.124 47.8018 34.124H45.7578C45.0684 34.124 44.5098 33.5654 44.5098 32.876V28.7812C44.5098 28.0918 45.0684 27.5332 45.7578 27.5332Z" fill="url(#paint9_linear_6009_4130)"/>
<path id="Vector_15" d="M45.7578 38.3289H47.8018C48.4912 38.3289 49.0498 38.8875 49.0498 39.5769V43.6716C49.0498 44.3611 48.4912 44.9197 47.8018 44.9197H45.7578C45.0684 44.9197 44.5098 44.3611 44.5098 43.6716V39.5769C44.5098 38.8875 45.0684 38.3289 45.7578 38.3289Z" fill="url(#paint10_linear_6009_4130)"/>
<path id="Vector_16" d="M37.9102 14.9724C37.3603 14.9724 36.9141 14.5261 36.9141 13.9763V13.5769C36.9141 13.0271 37.3603 12.5808 37.9102 12.5808C38.46 12.5808 38.9062 13.0271 38.9062 13.5769V13.9763C38.9062 14.5261 38.46 14.9724 37.9102 14.9724Z" fill="#D7F4FF"/>
</g>
</g>
<defs>
<linearGradient id="paint0_linear_6009_4130" x1="14.3781" y1="51.4264" x2="14.3781" y2="20.2128" gradientUnits="userSpaceOnUse">
<stop stop-color="#D4DBDB"/>
<stop offset="1" stop-color="#F3F3F3"/>
</linearGradient>
<linearGradient id="paint1_linear_6009_4130" x1="45.9384" y1="56.5762" x2="45.9384" y2="56.5762" gradientUnits="userSpaceOnUse">
<stop stop-color="#D4DBDB"/>
<stop offset="1" stop-color="#F3F3F3"/>
</linearGradient>
<linearGradient id="paint2_linear_6009_4130" x1="8.83984" y1="25.3367" x2="19.0896" y2="15.0879" gradientUnits="userSpaceOnUse">
<stop stop-color="#08A781"/>
<stop offset="0.98" stop-color="#4CC48B"/>
</linearGradient>
<linearGradient id="paint3_linear_6009_4130" x1="41.2278" y1="25.3367" x2="51.4776" y2="15.0879" gradientUnits="userSpaceOnUse">
<stop stop-color="#08A781"/>
<stop offset="0.98" stop-color="#4CC48B"/>
</linearGradient>
<linearGradient id="paint4_linear_6009_4130" x1="30.1582" y1="51.4259" x2="30.1582" y2="5.53584" gradientUnits="userSpaceOnUse">
<stop stop-color="#3161AD"/>
<stop offset="1" stop-color="#6595CE"/>
</linearGradient>
<linearGradient id="paint5_linear_6009_4130" x1="30.1582" y1="48.9914" x2="30.1582" y2="35.339" gradientUnits="userSpaceOnUse">
<stop stop-color="#D4DBDB"/>
<stop offset="1" stop-color="#F3F3F3"/>
</linearGradient>
<linearGradient id="paint6_linear_6009_4130" x1="30.1582" y1="55.2247" x2="30.1582" y2="47.6275" gradientUnits="userSpaceOnUse">
<stop stop-color="#08A781"/>
<stop offset="0.98" stop-color="#4CC48B"/>
</linearGradient>
<linearGradient id="paint7_linear_6009_4130" x1="11.2613" y1="30.8272" x2="15.8025" y2="30.8272" gradientUnits="userSpaceOnUse">
<stop stop-color="#08A781"/>
<stop offset="0.98" stop-color="#4CC48B"/>
</linearGradient>
<linearGradient id="paint8_linear_6009_4130" x1="11.2613" y1="41.6236" x2="15.8025" y2="41.6236" gradientUnits="userSpaceOnUse">
<stop stop-color="#08A781"/>
<stop offset="0.98" stop-color="#4CC48B"/>
</linearGradient>
<linearGradient id="paint9_linear_6009_4130" x1="44.513" y1="30.8272" x2="49.0542" y2="30.8272" gradientUnits="userSpaceOnUse">
<stop stop-color="#08A781"/>
<stop offset="0.98" stop-color="#4CC48B"/>
</linearGradient>
<linearGradient id="paint10_linear_6009_4130" x1="44.513" y1="41.6236" x2="49.0542" y2="41.6236" gradientUnits="userSpaceOnUse">
<stop stop-color="#08A781"/>
<stop offset="0.98" stop-color="#4CC48B"/>
</linearGradient>
<clipPath id="clip0_6009_4130">
<rect width="60" height="60" fill="white"/>
</clipPath>
</defs>
</svg>
