<svg width="86" height="86" viewBox="0 0 86 86" fill="none" xmlns="http://www.w3.org/2000/svg">
<rect width="86" height="86" rx="6" fill="white"/>
<path d="M55.835 41.5849H58.675V35.8749H61.525V32.9949C62.505 32.9949 63.445 32.9949 64.385 32.9949L64.365 32.9749C64.375 34.8849 64.395 36.8049 64.405 38.7149C63.465 38.7149 62.525 38.7149 61.585 38.7149V44.3749H64.395V38.7049H72.945V41.5449H78.625V47.2649H75.805L75.825 47.2849V44.3949H70.095V41.6049H67.295V52.9449H75.825V50.1249L75.805 50.1449H78.625V61.5249H70.135V55.8949H67.285V64.3849H70.085V67.2349H75.775V64.4549H78.625V70.0949H75.825V72.9549H73.005V75.8149H78.635V78.6349H58.705V75.8549H55.865V72.9949H53.015V70.1549H55.795V67.2949H53.015V64.4049H50.125L50.145 64.4249V61.5449H52.945V55.8649H50.125C50.125 54.9049 50.125 53.9449 50.125 52.9949H52.945V47.3049H50.125C50.125 46.3449 50.135 45.3949 50.145 44.4349L50.125 44.4549H55.845V41.5849L55.825 41.6049L55.835 41.5849ZM64.365 64.3849V55.8949H55.875V64.3849H64.365ZM64.365 75.8049V67.3149H61.585V75.8049H64.365ZM64.365 50.1149V47.3349H58.725V50.1149H64.365ZM67.305 70.1449V75.7949H70.075V70.1449H67.305ZM75.775 58.6849V55.8849H73.005V58.6849H75.775Z" fill="#13439A"/>
<path d="M33.0058 10.185H35.8558V7.34497H38.6958V10.135H41.5558V7.36497H47.2558V12.995H50.1458C50.1458 14.005 50.1458 14.945 50.1458 15.885C49.2058 15.885 48.2658 15.885 47.3258 15.885V18.685H50.1358V15.865H55.8358V30.135H58.6758V32.975H50.1358V38.715L50.1558 38.695H47.2858L47.3058 38.715V35.895H44.4358V38.715L44.4558 38.695H38.7358V44.425L38.7558 44.405H35.9058V47.235H33.0658V44.405H30.1758L30.1958 44.425V41.555L30.1758 41.575H33.0258V35.885H35.8558V21.615H38.7358C38.7358 20.615 38.7358 19.665 38.7358 18.725C39.6758 18.725 40.6158 18.725 41.6258 18.725V15.855H44.4158V13.055H38.7558V18.735H33.0558V21.545H30.2158V13.055H33.0558V10.165L33.0358 10.185H33.0058ZM50.1458 27.315H47.2658V21.635H41.5858C41.5858 22.605 41.5858 23.525 41.5858 24.455H38.7658V30.115H41.5758V24.445H44.4558V32.975H47.3058V30.155H50.1258C50.1258 29.165 50.1258 28.235 50.1258 27.305H52.9458V21.645H50.1358V27.315H50.1458ZM38.7558 33.045V35.835H41.5358V33.045H38.7558Z" fill="#13439A"/>
<path d="M7.375 7.34497H27.275V27.255H7.375V7.34497ZM10.205 24.405H24.405V10.205H10.205V24.405Z" fill="#13439A"/>
<path d="M58.7461 7.34497H78.6461V27.255H58.7461V7.34497ZM61.5861 24.405H75.7861V10.205H61.5861V24.405Z" fill="#13439A"/>
<path d="M27.2655 78.6549H7.35547V58.7449H27.2655V78.6549ZM24.4255 61.5949H10.2355V75.7949H24.4355V61.5949H24.4255Z" fill="#13439A"/>
<path d="M30.1555 33.0049C30.1555 35.8649 30.1555 38.7249 30.1555 41.5849L30.1755 41.5649C29.2155 41.5649 28.2655 41.5749 27.3055 41.5849C27.3055 40.6449 27.3055 39.7049 27.3055 38.7649H24.5055V41.5749H27.3255C27.3255 42.5349 27.3155 43.4849 27.3055 44.4449L27.3255 44.4249H24.5055V47.2949H27.3255L27.3055 47.2749V50.0949H21.6155V38.7449H18.7855V44.4049H15.9255V47.2849C14.9455 47.2849 14.0055 47.2849 13.0655 47.2849L13.0855 47.3049C13.0755 45.3949 13.0555 43.4749 13.0455 41.5649C13.9855 41.5649 14.9255 41.5649 15.8655 41.5649V38.7649H13.0555V41.5849H10.1955V38.7249H7.35547V35.8949H21.5755V33.0149H24.4655L24.4455 32.9949V35.8149H27.3155V32.9949L27.2955 33.0149C28.2555 33.0149 29.2055 33.0149 30.1655 33.0149L30.1455 32.9949L30.1555 33.0049Z" fill="#13439A"/>
<path d="M35.8751 75.8151H33.0251V78.6451H30.2051V67.2851H33.0251V58.6951L33.0051 58.7151C33.9651 58.7151 34.9151 58.7051 35.8751 58.6951V61.5151H41.5951V58.7451H44.4151V67.2751L44.4351 67.2551H41.5651L41.5851 67.2751V64.4551H35.8851V70.1151H33.0451V72.9451H35.8651V75.8351L35.8851 75.8151H35.8751Z" fill="#13439A"/>
<path d="M35.8757 52.9951V50.1551H38.7257V44.4151L38.7057 44.4351H41.5857V41.5451H44.4257V38.7051L44.4057 38.7251H47.2757L47.2557 38.7051V41.5751H50.1257L50.1057 41.5551V44.4251L50.1257 44.4051H44.3857V47.2851H41.5457V52.9651H35.8457L35.8657 52.9851L35.8757 52.9951Z" fill="#13439A"/>
<path d="M47.2756 72.9649V75.8149H50.1056V78.6349H41.5856V72.9949H38.7656V67.2749C39.6956 67.2749 40.6356 67.2749 41.5856 67.2749L41.5656 67.2549V70.1249H44.4356L44.4156 70.1049V72.9749H47.2856L47.2656 72.9549L47.2756 72.9649Z" fill="#13439A"/>
<path d="M50.1358 64.395V72.955C49.1658 72.955 48.2258 72.955 47.2758 72.955L47.2958 72.975V70.105H44.4258L44.4458 70.125V67.255L44.4258 67.275H47.3058V64.425H50.1458L50.1258 64.405L50.1358 64.395Z" fill="#13439A"/>
<path d="M13.0354 50.145H15.8854V52.965H21.5554V55.805H13.0454V50.135L13.0254 50.155L13.0354 50.145Z" fill="#13439A"/>
<path d="M7.35547 32.9651V30.1851H18.7155V32.9651H7.35547Z" fill="#13439A"/>
<path d="M72.975 32.9951C70.105 32.9951 67.245 32.9851 64.375 32.9751L64.395 32.9951C64.395 32.0651 64.395 31.1451 64.395 30.1851H72.965V33.0151L72.985 32.9951H72.975Z" fill="#13439A"/>
<path d="M33.0251 58.6949H30.2051V53.0049H35.8851L35.8651 52.9849C35.8651 53.9449 35.8751 54.8949 35.8851 55.8549C34.9451 55.8549 33.9951 55.8549 33.0151 55.8549V58.7049L33.0351 58.6849L33.0251 58.6949Z" fill="#13439A"/>
<path d="M50.1348 38.725H52.9748V35.905H55.8448V41.585L55.8648 41.565H50.1448L50.1648 41.585V38.715L50.1448 38.735L50.1348 38.725Z" fill="#13439A"/>
<path d="M75.816 47.2749C75.816 48.2349 75.816 49.1949 75.816 50.1449L75.836 50.1249H70.166V47.2849H75.836L75.816 47.2649V47.2749Z" fill="#13439A"/>
<path d="M30.1549 44.415V47.275C29.1849 47.275 28.2449 47.275 27.2949 47.275L27.3149 47.295V44.425L27.2949 44.445H30.1649L30.1449 44.425L30.1549 44.415Z" fill="#13439A"/>
<path d="M13.0458 50.1249C12.0858 50.1249 11.1358 50.1249 10.1758 50.1249L10.1958 50.1449V47.3149C11.1658 47.3149 12.1158 47.3149 13.0758 47.3149L13.0558 47.2949C13.0558 48.2449 13.0458 49.1949 13.0358 50.1449L13.0558 50.1249H13.0458Z" fill="#13439A"/>
<path d="M10.1752 50.125V52.945H7.36523V50.145C8.30523 50.145 9.24523 50.145 10.1852 50.145L10.1652 50.125H10.1752Z" fill="#13439A"/>
<path d="M24.4746 55.8149V53.0349H27.2646V55.8149H24.4746Z" fill="#13439A"/>
<path d="M33.0251 10.165H30.2051V7.35498H33.0051C33.0051 8.29498 33.0051 9.23498 33.0051 10.175L33.0251 10.155V10.165Z" fill="#13439A"/>
<path d="M53.0352 7.34497H55.8152V10.125H53.0352V7.34497Z" fill="#13439A"/>
<path d="M32.9953 24.4949V27.2649H30.1953V24.4949H32.9953Z" fill="#13439A"/>
<path d="M24.4651 33.0151V30.1951H27.3051C27.3051 31.1351 27.3051 32.0751 27.3051 33.0151L27.3251 32.9951H24.4551L24.4751 33.0151H24.4651Z" fill="#13439A"/>
<path d="M72.9651 33.0149C73.9251 33.0149 74.8751 33.0149 75.8351 33.0149L75.8151 32.9949V35.8149H72.9751C72.9751 34.8749 72.9751 33.9349 72.9751 32.9949L72.9551 33.0149H72.9651Z" fill="#13439A"/>
<path d="M30.1663 33.0151V30.1951H32.9763V32.9951C32.0363 32.9951 31.0962 32.9951 30.1562 32.9951L30.1763 33.0151H30.1663Z" fill="#13439A"/>
<path d="M75.8362 33.0151V30.1951H78.6462V32.9951C77.7062 32.9951 76.7662 32.9951 75.8262 32.9951L75.8462 33.0151H75.8362Z" fill="#13439A"/>
<path d="M35.8555 75.8349H38.6755V78.645H35.8755C35.8755 77.705 35.8755 76.765 35.8755 75.825L35.8555 75.8449V75.8349Z" fill="#13439A"/>
<path d="M50.1454 52.9949H47.2754V47.2649H50.1454V52.9949Z" fill="#13439A"/>
<path d="M47.2946 52.9849V55.8549H44.4746V52.9849H47.2946Z" fill="#13439A"/>
<path d="M35.8652 58.705V55.835H38.6852V58.705H35.8652Z" fill="#13439A"/>
<path d="M47.2754 55.835H50.1454V58.655H47.2754V55.835Z" fill="#13439A"/>
<path d="M61.5163 61.5249H58.7363V58.7449H61.5163V61.5249Z" fill="#13439A"/>
<path d="M21.5564 21.565H13.0664V13.075H21.5564V21.565Z" fill="#13439A"/>
<path d="M72.9451 13.075V21.555H64.4551V13.075H72.9451Z" fill="#13439A"/>
<path d="M13.0664 72.9251V64.4351H21.5564V72.9251H13.0664Z" fill="#13439A"/>
</svg>
