<svg width="28" height="28" viewBox="0 0 28 28" fill="none" xmlns="http://www.w3.org/2000/svg">
<rect x="0.5" y="0.5" width="27" height="27" rx="13.5" fill="#FFD4D4"/>
<rect x="0.5" y="0.5" width="27" height="27" rx="13.5" stroke="#FF3410"/>
<path fill-rule="evenodd" clip-rule="evenodd" d="M14.2047 22.9977C13.1039 23.0147 12.1043 22.8222 11.1733 22.3467C9.0058 21.2378 7.87189 19.4375 7.70609 17.0297C7.61308 15.6791 7.92446 14.3874 8.42348 13.1387C8.78015 12.2466 9.23711 11.4038 9.73209 10.5813C10.4972 9.3107 11.3335 8.08701 12.1787 6.86899C12.5483 6.336 12.9931 5.84588 13.1411 5.18106C13.1799 5.00717 13.4177 4.95298 13.5779 5.04275C13.7162 5.1204 13.8116 5.23767 13.89 5.3695C13.9903 5.53773 14.0882 5.70757 14.1844 5.87823C14.4958 6.43143 14.8703 6.93692 15.2884 7.41572C16.2363 8.49949 17.113 9.6415 17.9574 10.8078C18.9385 12.1625 19.6518 13.6498 20.0667 15.2731C20.3344 16.3212 20.3975 17.3816 20.1759 18.4475C19.7198 20.6401 18.3553 22.0094 16.2735 22.7082C15.5869 22.9387 14.8703 23.018 14.2039 22.9969L14.2047 22.9977Z" fill="url(#paint0_linear_1157_12147)"/>
<path fill-rule="evenodd" clip-rule="evenodd" d="M10.6543 18.4592C10.6731 18.3158 10.677 18.1535 10.7186 18.0012C11.1716 16.3394 11.8898 14.8081 12.9809 13.4648C13.0798 13.3431 13.2005 13.2313 13.3301 13.1423C13.5526 12.988 13.795 13.0701 13.882 13.3461C13.9562 13.5805 14.066 13.7833 14.2154 13.9742C15.0334 15.0158 15.532 16.2157 15.9287 17.4641C16.0335 17.7935 16.1295 18.1258 16.2145 18.4602C16.2947 18.7747 16.2264 18.9884 16.0355 19.1002C15.8347 19.2179 15.6042 19.1042 15.3846 18.7926C15.1571 18.4701 15.1165 17.9557 14.7347 17.8291C14.4132 17.7222 14.0086 17.8776 13.6407 17.8904C13.2697 17.9043 12.8948 17.9221 12.5367 17.7776C12.2598 17.6659 12.0857 17.7954 11.9501 18.0319C11.8304 18.2386 11.6989 18.4404 11.5584 18.6333C11.4813 18.7391 11.3853 18.8371 11.2805 18.9152C11.0767 19.0656 10.7651 18.9528 10.6988 18.7124C10.678 18.6363 10.6711 18.5561 10.6543 18.4612V18.4592ZM12.7811 16.7103C13.2885 16.7716 13.7475 16.7677 14.2708 16.7073C14.0631 16.1752 13.8801 15.7073 13.699 15.2384C13.6535 15.1207 13.6328 14.9822 13.4468 14.9832C13.2232 15.5421 12.9403 16.0812 12.7811 16.7103Z" fill="white"/>
<path fill-rule="evenodd" clip-rule="evenodd" d="M17.1098 14.9872C17.0524 14.9802 16.9456 14.9545 16.8833 14.8586C16.8259 14.7705 16.7695 14.6756 16.7448 14.5757C16.6607 14.2304 16.5113 13.9851 16.0959 14.0207C15.9564 14.0326 15.8367 13.9396 15.8011 13.7962C15.7576 13.6221 15.8308 13.4856 15.9851 13.3956C16.0306 13.3689 16.0771 13.3323 16.1275 13.3243C16.541 13.2581 16.6043 12.9732 16.5954 12.62C16.5885 12.3816 16.5974 12.1244 16.8753 12.0146C17.0633 11.9405 17.2592 12.1531 17.365 12.5379C17.3858 12.6151 17.3897 12.6962 17.4006 12.7753C17.4273 12.9643 17.545 13.0493 17.727 13.0563C17.9457 13.0652 18.1969 13.0741 18.2592 13.3184C18.3344 13.6092 18.1 13.7635 17.8675 13.8348C17.6044 13.9159 17.5579 14.084 17.5529 14.3175C17.549 14.4748 17.5302 14.639 17.4778 14.7844C17.4323 14.912 17.3096 14.9872 17.1108 14.9852L17.1098 14.9872Z" fill="white"/>
<defs>
<linearGradient id="paint0_linear_1157_12147" x1="14.0001" y1="7.37499" x2="14.0001" y2="23.0002" gradientUnits="userSpaceOnUse">
<stop stop-color="#F61F1F"/>
<stop offset="1" stop-color="#BD1717"/>
</linearGradient>
</defs>
</svg>
